<?xml version="1.0" standalone="no"?>
<!DOCTYPE svg PUBLIC "-//W3C//DTD SVG 1.1//EN" "http://www.w3.org/Graphics/SVG/1.1/DTD/svg11.dtd">
<!--Generator: Xara Designer (www.xara.com), SVG filter version: 6.0.0.4-->
<svg stroke-width="0.501" stroke-linejoin="bevel" fill-rule="evenodd" xmlns:xlink="http://www.w3.org/1999/xlink" xmlns="http://www.w3.org/2000/svg" version="1.1" overflow="visible" width="99.55pt" height="29.294pt" viewBox="0 0 99.55 29.294">
 <defs>
	</defs>
 <g id="Document" fill="none" stroke="black" font-family="Times New Roman" font-size="16" transform="scale(1 -1)">
  <g id="Spread" transform="translate(0 -29.294)">
   <g id="Layer 1">
    <g id="Group" stroke-linecap="round" stroke="none">
     <g id="Group_1" fill-rule="nonzero" stroke-linejoin="round" stroke-width="0.162" fill="#2980b9" stroke-miterlimit="79.8403193612775">
      <g id="Group_2">
       <path d="M 47.676,20.527 L 44.696,20.527 C 44.5,20.527 44.312,20.504 44.126,20.461 C 43.942,20.418 43.78,20.343 43.64,20.245 C 43.503,20.144 43.393,20.01 43.311,19.846 C 43.23,19.679 43.188,19.48 43.181,19.244 C 43.179,19.089 43.189,18.947 43.209,18.815 C 43.233,18.683 43.259,18.571 43.29,18.476 C 43.343,18.315 43.477,18.181 43.691,18.078 C 43.907,17.974 44.206,17.922 44.589,17.922 C 45.197,17.922 45.703,17.887 46.113,17.82 C 46.521,17.753 46.859,17.654 47.123,17.526 C 47.386,17.398 47.59,17.246 47.735,17.067 C 47.881,16.888 47.991,16.685 48.065,16.458 C 48.108,16.322 48.137,16.173 48.153,16.012 C 48.168,15.849 48.177,15.702 48.18,15.568 L 48.181,15.254 C 48.178,14.742 48.085,14.321 47.904,13.986 C 47.724,13.653 47.455,13.388 47.101,13.193 C 46.747,12.998 46.308,12.862 45.785,12.784 C 45.261,12.707 44.655,12.669 43.968,12.669 L 39.92,12.669 L 39.916,13.951 L 42.977,13.951 C 43.282,13.951 43.541,13.975 43.761,14.021 C 43.983,14.069 44.166,14.152 44.308,14.271 C 44.452,14.387 44.56,14.54 44.632,14.73 C 44.707,14.918 44.747,15.153 44.749,15.436 C 44.754,15.591 44.742,15.735 44.722,15.865 C 44.699,15.997 44.672,16.11 44.643,16.203 C 44.572,16.419 44.45,16.568 44.274,16.649 C 44.1,16.728 43.845,16.769 43.508,16.769 C 42.91,16.769 42.397,16.804 41.97,16.876 C 41.542,16.945 41.185,17.042 40.9,17.169 C 40.614,17.293 40.391,17.441 40.232,17.611 C 40.069,17.783 39.958,17.97 39.894,18.172 C 39.797,18.47 39.747,18.807 39.747,19.183 L 39.741,19.395 C 39.744,19.841 39.829,20.215 39.996,20.521 C 40.162,20.827 40.408,21.076 40.732,21.27 C 41.059,21.462 41.462,21.6 41.943,21.683 C 42.423,21.766 42.979,21.809 43.613,21.809 L 47.673,21.809 L 47.676,20.527 Z" marker-start="none" marker-end="none"/>
       <path d="M 49.625,18.002 L 54.259,18.002 L 54.267,16.518 L 49.631,16.518 L 49.625,18.002 Z" marker-start="none" marker-end="none"/>
       <path d="M 66.026,15.073 C 66.024,14.58 65.93,14.179 65.745,13.865 C 65.561,13.552 65.311,13.309 64.997,13.133 C 64.683,12.959 64.32,12.836 63.903,12.769 C 63.488,12.703 63.047,12.669 62.582,12.669 L 56.22,12.669 L 56.207,21.809 L 62.359,21.809 C 62.756,21.809 63.135,21.782 63.493,21.729 C 63.849,21.676 64.174,21.586 64.467,21.462 C 64.76,21.336 65.012,21.17 65.226,20.961 C 65.438,20.752 65.592,20.496 65.692,20.195 C 65.722,20.093 65.754,19.956 65.782,19.783 C 65.812,19.612 65.826,19.46 65.831,19.326 C 65.837,19.056 65.816,18.819 65.769,18.613 C 65.72,18.408 65.65,18.225 65.557,18.067 C 65.463,17.909 65.341,17.772 65.194,17.654 C 65.048,17.534 64.876,17.427 64.68,17.325 L 64.673,17.285 C 64.979,17.17 65.237,17.017 65.447,16.827 C 65.659,16.632 65.809,16.373 65.903,16.043 C 65.945,15.915 65.976,15.764 66,15.593 C 66.02,15.421 66.029,15.249 66.026,15.073 Z M 62.561,15.356 C 62.557,15.471 62.552,15.575 62.539,15.668 C 62.53,15.763 62.51,15.855 62.483,15.941 C 62.392,16.224 62.221,16.425 61.974,16.543 C 61.728,16.659 61.362,16.718 60.877,16.718 L 59.594,16.718 L 59.602,13.951 L 60.904,13.951 C 61.207,13.951 61.462,13.978 61.67,14.032 C 61.88,14.086 62.049,14.171 62.181,14.284 C 62.311,14.4 62.407,14.544 62.469,14.72 C 62.53,14.894 62.561,15.106 62.561,15.356 Z M 60.881,17.922 C 61.171,17.922 61.409,17.943 61.596,17.986 C 61.786,18.03 61.934,18.103 62.042,18.204 C 62.151,18.305 62.226,18.437 62.267,18.602 C 62.307,18.768 62.33,18.969 62.334,19.203 C 62.342,19.433 62.316,19.635 62.259,19.808 C 62.182,20.045 62.036,20.224 61.819,20.343 C 61.601,20.466 61.289,20.527 60.887,20.527 L 59.603,20.527 L 59.599,17.922 L 60.881,17.922 Z" marker-start="none" marker-end="none"/>
       <path d="M 71.145,21.809 L 71.145,13.951 L 75.186,13.951 L 75.187,12.669 L 67.764,12.669 L 67.753,21.809 L 71.145,21.809 Z" marker-start="none" marker-end="none"/>
       <path d="M 80.547,12.589 C 79.961,12.589 79.442,12.638 78.993,12.74 C 78.542,12.841 78.156,12.985 77.831,13.174 C 77.509,13.363 77.239,13.595 77.026,13.872 C 76.811,14.148 76.649,14.457 76.538,14.8 C 76.395,15.237 76.332,15.739 76.343,16.305 L 76.334,18.172 C 76.337,18.747 76.413,19.261 76.559,19.719 C 76.708,20.177 76.95,20.566 77.282,20.89 C 77.615,21.213 78.048,21.462 78.583,21.633 C 79.117,21.804 79.772,21.89 80.554,21.891 L 82.33,21.891 C 82.917,21.89 83.434,21.84 83.878,21.744 C 84.325,21.645 84.71,21.503 85.033,21.313 C 85.357,21.125 85.624,20.896 85.836,20.629 C 86.048,20.359 86.21,20.049 86.325,19.698 C 86.398,19.47 86.453,19.229 86.487,18.977 C 86.523,18.724 86.538,18.458 86.535,18.172 L 86.534,16.305 C 86.535,15.739 86.464,15.228 86.32,14.769 C 86.175,14.312 85.935,13.922 85.597,13.598 C 85.261,13.276 84.824,13.027 84.288,12.851 C 83.754,12.675 83.1,12.589 82.325,12.589 L 80.547,12.589 Z M 81.416,13.872 C 81.683,13.872 81.922,13.908 82.134,13.986 C 82.345,14.063 82.521,14.188 82.658,14.36 C 82.799,14.532 82.904,14.755 82.975,15.027 C 83.043,15.3 83.076,15.632 83.07,16.021 L 83.076,18.315 C 83.078,18.598 83.065,18.847 83.035,19.062 C 83.006,19.278 82.963,19.47 82.908,19.637 C 82.787,20.016 82.603,20.271 82.363,20.405 C 82.121,20.54 81.808,20.607 81.424,20.607 C 81.162,20.607 80.931,20.581 80.733,20.527 C 80.534,20.471 80.368,20.368 80.228,20.213 C 80.09,20.059 79.984,19.837 79.909,19.545 C 79.835,19.256 79.794,18.88 79.791,18.416 L 79.772,16.043 C 79.772,15.813 79.786,15.601 79.81,15.406 C 79.837,15.21 79.875,15.037 79.925,14.88 C 80.039,14.531 80.219,14.275 80.466,14.112 C 80.715,13.951 81.032,13.872 81.416,13.872 Z" marker-start="none" marker-end="none"/>
       <path d="M 97.257,12.669 L 93.551,12.669 L 91.402,15.811 L 88.873,12.669 L 86.994,12.669 L 90.564,17.053 L 87.326,21.809 L 91.024,21.809 L 92.856,19.082 L 94.973,21.809 L 96.86,21.809 L 93.707,17.861 L 97.257,12.669 Z" marker-start="none" marker-end="none"/>
      </g>
     </g>
     <g id="Group_3" fill-rule="nonzero" stroke-linejoin="round" stroke-width="0.255" fill="#666666" stroke-miterlimit="79.8403193612775">
      <g id="Group_4">
       <path d="M 41.567,9.606 C 41.485,9.653 41.383,9.693 41.26,9.727 C 41.138,9.76 41.003,9.778 40.855,9.78 C 40.644,9.778 40.46,9.737 40.305,9.659 C 40.15,9.578 40.03,9.472 39.945,9.336 C 39.86,9.201 39.817,9.05 39.814,8.882 C 39.813,8.706 39.876,8.546 39.999,8.4 C 40.124,8.255 40.317,8.128 40.583,8.022 C 40.7,7.971 40.797,7.922 40.868,7.872 C 40.938,7.824 40.989,7.771 41.021,7.713 C 41.053,7.657 41.068,7.59 41.068,7.515 C 41.068,7.398 41.026,7.304 40.944,7.233 C 40.859,7.162 40.736,7.125 40.566,7.123 C 40.481,7.124 40.395,7.133 40.31,7.155 C 40.222,7.175 40.143,7.2 40.069,7.231 C 39.996,7.26 39.932,7.292 39.88,7.325 L 39.737,6.856 C 39.84,6.797 39.963,6.747 40.104,6.712 C 40.245,6.675 40.396,6.655 40.555,6.654 C 40.783,6.655 40.98,6.692 41.148,6.765 C 41.316,6.839 41.445,6.944 41.537,7.08 C 41.627,7.216 41.675,7.381 41.677,7.574 C 41.676,7.79 41.611,7.972 41.485,8.118 C 41.357,8.262 41.167,8.384 40.92,8.484 C 40.799,8.535 40.7,8.585 40.627,8.631 C 40.554,8.674 40.501,8.722 40.469,8.773 C 40.435,8.825 40.418,8.885 40.419,8.952 C 40.419,9.021 40.438,9.08 40.469,9.137 C 40.502,9.191 40.551,9.234 40.617,9.268 C 40.679,9.299 40.762,9.317 40.855,9.317 C 40.935,9.317 41.012,9.307 41.086,9.292 C 41.157,9.273 41.222,9.252 41.279,9.225 C 41.337,9.2 41.386,9.174 41.427,9.149 L 41.567,9.606 Z" marker-start="none" marker-end="none"/>
       <path d="M 46.408,8.528 C 46.407,8.764 46.38,8.962 46.324,9.123 C 46.269,9.284 46.196,9.412 46.107,9.508 C 46.016,9.606 45.915,9.675 45.805,9.717 C 45.696,9.76 45.583,9.78 45.471,9.78 C 45.258,9.778 45.073,9.727 44.921,9.628 C 44.771,9.531 44.646,9.398 44.545,9.23 L 44.534,9.23 C 44.47,9.401 44.371,9.533 44.232,9.631 C 44.095,9.729 43.932,9.778 43.74,9.78 C 43.588,9.778 43.454,9.753 43.342,9.704 C 43.228,9.654 43.132,9.591 43.054,9.516 C 42.975,9.439 42.911,9.358 42.864,9.274 L 42.847,9.274 L 42.815,9.713 L 42.27,9.713 C 42.275,9.588 42.28,9.458 42.285,9.322 C 42.289,9.189 42.291,9.037 42.291,8.869 L 42.291,6.715 L 42.913,6.715 L 42.913,8.533 C 42.913,8.652 42.932,8.757 42.967,8.847 C 43.002,8.938 43.049,9.014 43.107,9.075 C 43.167,9.138 43.232,9.183 43.303,9.216 C 43.373,9.248 43.445,9.261 43.515,9.261 C 43.638,9.26 43.737,9.228 43.814,9.164 C 43.89,9.099 43.948,9.012 43.985,8.901 C 44.022,8.789 44.041,8.663 44.039,8.522 L 44.039,6.715 L 44.66,6.715 L 44.66,8.566 C 44.662,8.712 44.689,8.836 44.748,8.939 C 44.802,9.044 44.876,9.123 44.963,9.179 C 45.052,9.233 45.143,9.261 45.242,9.261 C 45.37,9.261 45.472,9.226 45.553,9.157 C 45.632,9.089 45.693,8.993 45.73,8.868 C 45.768,8.743 45.786,8.597 45.786,8.429 L 45.786,6.715 L 46.408,6.715 L 46.408,8.528 Z" marker-start="none" marker-end="none"/>
       <path d="M 49.296,8.56 C 49.296,8.721 49.279,8.873 49.243,9.02 C 49.207,9.165 49.148,9.295 49.064,9.409 C 48.979,9.523 48.863,9.613 48.717,9.678 C 48.571,9.743 48.389,9.778 48.17,9.78 C 47.966,9.778 47.779,9.753 47.613,9.707 C 47.445,9.658 47.309,9.599 47.2,9.53 L 47.331,9.109 C 47.428,9.173 47.539,9.225 47.667,9.26 C 47.794,9.297 47.925,9.316 48.06,9.317 C 48.21,9.316 48.326,9.292 48.409,9.244 C 48.492,9.197 48.553,9.138 48.589,9.066 C 48.627,8.994 48.647,8.921 48.656,8.847 C 48.663,8.771 48.665,8.705 48.665,8.647 C 48.321,8.647 48.023,8.606 47.772,8.522 C 47.522,8.441 47.329,8.316 47.193,8.152 C 47.057,7.988 46.988,7.78 46.987,7.531 C 46.987,7.414 47.007,7.304 47.047,7.2 C 47.086,7.095 47.142,7.001 47.218,6.92 C 47.294,6.839 47.386,6.774 47.496,6.726 C 47.605,6.68 47.728,6.655 47.87,6.654 C 47.995,6.655 48.11,6.673 48.218,6.708 C 48.323,6.743 48.417,6.792 48.5,6.853 C 48.582,6.913 48.652,6.983 48.708,7.062 L 48.724,7.062 L 48.768,6.715 L 49.339,6.715 C 49.321,6.815 49.309,6.926 49.304,7.049 C 49.297,7.173 49.296,7.3 49.296,7.429 L 49.296,8.56 Z M 48.681,7.727 C 48.68,7.61 48.652,7.506 48.595,7.414 C 48.538,7.321 48.464,7.251 48.371,7.198 C 48.275,7.146 48.171,7.117 48.054,7.117 C 47.975,7.117 47.903,7.133 47.836,7.167 C 47.769,7.201 47.717,7.253 47.676,7.326 C 47.635,7.395 47.615,7.487 47.614,7.597 C 47.615,7.728 47.648,7.837 47.711,7.92 C 47.773,8.002 47.857,8.067 47.963,8.11 C 48.066,8.154 48.18,8.184 48.305,8.202 C 48.431,8.215 48.555,8.223 48.681,8.223 L 48.681,7.727 Z" marker-start="none" marker-end="none"/>
       <path d="M 51.599,9.763 C 51.573,9.768 51.547,9.772 51.522,9.777 C 51.498,9.78 51.471,9.78 51.441,9.78 C 51.333,9.78 51.226,9.755 51.124,9.707 C 51.023,9.657 50.933,9.585 50.852,9.492 C 50.773,9.403 50.709,9.292 50.663,9.166 L 50.641,9.166 L 50.619,9.713 L 50.07,9.713 C 50.077,9.576 50.084,9.432 50.087,9.284 C 50.091,9.133 50.093,8.973 50.092,8.799 L 50.092,6.715 L 50.723,6.715 L 50.723,8.305 C 50.724,8.479 50.752,8.632 50.807,8.764 C 50.863,8.893 50.942,8.994 51.046,9.066 C 51.149,9.139 51.271,9.175 51.414,9.176 C 51.448,9.176 51.482,9.175 51.513,9.172 C 51.544,9.171 51.572,9.166 51.599,9.159 L 51.599,9.763 Z" marker-start="none" marker-end="none"/>
       <path d="M 52.215,9.713 L 51.79,9.713 L 51.79,9.242 L 52.215,9.242 L 52.215,7.69 C 52.214,7.494 52.235,7.331 52.27,7.201 C 52.306,7.07 52.363,6.963 52.438,6.884 C 52.504,6.81 52.59,6.754 52.691,6.714 C 52.792,6.675 52.905,6.655 53.031,6.654 C 53.138,6.655 53.233,6.662 53.316,6.673 C 53.398,6.687 53.467,6.703 53.521,6.726 L 53.499,7.209 C 53.463,7.2 53.423,7.189 53.379,7.183 C 53.336,7.176 53.284,7.173 53.22,7.172 C 53.09,7.172 52.994,7.216 52.931,7.308 C 52.87,7.398 52.841,7.538 52.842,7.721 L 52.842,9.242 L 53.555,9.242 L 53.555,9.713 L 52.842,9.713 L 52.842,10.454 L 52.215,10.258 L 52.215,9.713 Z" marker-start="none" marker-end="none"/>
       <path d="M 55.95,9.295 L 55.95,11.08 L 55.319,11.08 L 55.319,7.515 C 55.319,7.422 55.319,7.329 55.317,7.231 C 55.314,7.133 55.311,7.041 55.308,6.952 C 55.304,6.861 55.302,6.782 55.297,6.715 L 55.837,6.715 L 55.867,7.166 L 55.885,7.166 C 55.986,6.989 56.111,6.861 56.259,6.779 C 56.407,6.696 56.579,6.654 56.773,6.654 C 56.93,6.654 57.083,6.688 57.232,6.751 C 57.379,6.818 57.515,6.917 57.634,7.048 C 57.755,7.18 57.85,7.345 57.919,7.548 C 57.992,7.75 58.028,7.988 58.03,8.261 C 58.028,8.567 57.979,8.835 57.883,9.061 C 57.785,9.287 57.65,9.463 57.475,9.589 C 57.303,9.713 57.101,9.778 56.87,9.78 C 56.661,9.779 56.479,9.736 56.326,9.652 C 56.173,9.567 56.051,9.449 55.961,9.295 L 55.95,9.295 Z M 55.95,8.488 C 55.95,8.589 55.968,8.687 56.002,8.78 C 56.037,8.871 56.086,8.955 56.147,9.029 C 56.211,9.104 56.281,9.164 56.366,9.206 C 56.451,9.25 56.543,9.273 56.642,9.274 C 56.767,9.273 56.877,9.245 56.97,9.191 C 57.064,9.137 57.141,9.062 57.203,8.965 C 57.264,8.869 57.311,8.759 57.343,8.635 C 57.372,8.51 57.389,8.376 57.389,8.233 C 57.388,8.018 57.36,7.83 57.301,7.67 C 57.244,7.509 57.16,7.386 57.047,7.296 C 56.935,7.208 56.799,7.163 56.637,7.162 C 56.498,7.164 56.377,7.2 56.274,7.268 C 56.172,7.337 56.093,7.429 56.036,7.54 C 55.981,7.652 55.95,7.771 55.95,7.901 L 55.95,8.488 Z" marker-start="none" marker-end="none"/>
       <path d="M 61.088,9.713 L 60.456,9.713 L 60.456,7.857 C 60.455,7.744 60.436,7.645 60.4,7.562 C 60.362,7.475 60.313,7.405 60.251,7.347 C 60.189,7.29 60.123,7.249 60.05,7.219 C 59.977,7.191 59.904,7.177 59.83,7.177 C 59.694,7.177 59.583,7.215 59.5,7.285 C 59.419,7.358 59.36,7.457 59.323,7.585 C 59.287,7.712 59.269,7.864 59.269,8.039 L 59.269,9.719 L 58.639,9.719 L 58.639,7.933 C 58.64,7.695 58.666,7.494 58.718,7.33 C 58.769,7.165 58.838,7.035 58.929,6.935 C 59.02,6.835 59.123,6.765 59.237,6.72 C 59.354,6.675 59.476,6.654 59.608,6.654 C 59.728,6.655 59.839,6.672 59.935,6.703 C 60.033,6.734 60.12,6.775 60.194,6.825 C 60.267,6.875 60.332,6.928 60.385,6.985 C 60.437,7.041 60.48,7.097 60.511,7.15 L 60.528,7.15 L 60.561,6.715 L 61.115,6.715 C 61.108,6.834 61.104,6.964 61.097,7.108 C 61.092,7.251 61.088,7.406 61.088,7.574 L 61.088,9.713 Z" marker-start="none" marker-end="none"/>
       <path d="M 63.533,9.606 C 63.45,9.653 63.347,9.693 63.225,9.727 C 63.102,9.76 62.968,9.778 62.819,9.78 C 62.608,9.778 62.425,9.737 62.269,9.659 C 62.115,9.578 61.995,9.472 61.909,9.336 C 61.823,9.201 61.781,9.05 61.78,8.882 C 61.779,8.706 61.84,8.546 61.964,8.4 C 62.088,8.255 62.282,8.128 62.547,8.022 C 62.666,7.971 62.762,7.922 62.833,7.872 C 62.905,7.824 62.955,7.771 62.987,7.713 C 63.016,7.657 63.033,7.59 63.032,7.515 C 63.033,7.398 62.991,7.304 62.907,7.233 C 62.826,7.162 62.7,7.125 62.531,7.123 C 62.446,7.124 62.359,7.133 62.274,7.155 C 62.188,7.175 62.109,7.2 62.034,7.231 C 61.96,7.26 61.897,7.292 61.845,7.325 L 61.704,6.856 C 61.807,6.797 61.927,6.747 62.069,6.712 C 62.211,6.675 62.36,6.655 62.521,6.654 C 62.749,6.655 62.946,6.692 63.114,6.765 C 63.281,6.839 63.409,6.944 63.501,7.08 C 63.594,7.216 63.641,7.381 63.643,7.574 C 63.642,7.79 63.577,7.972 63.449,8.118 C 63.321,8.262 63.133,8.384 62.885,8.484 C 62.764,8.535 62.666,8.585 62.594,8.631 C 62.52,8.674 62.467,8.722 62.433,8.773 C 62.4,8.825 62.384,8.885 62.384,8.952 C 62.384,9.021 62.402,9.08 62.434,9.137 C 62.469,9.191 62.515,9.234 62.581,9.268 C 62.646,9.299 62.725,9.317 62.819,9.317 C 62.902,9.317 62.979,9.307 63.049,9.292 C 63.122,9.273 63.186,9.252 63.244,9.225 C 63.302,9.2 63.351,9.174 63.391,9.149 L 63.533,9.606 Z" marker-start="none" marker-end="none"/>
       <path d="M 64.941,10.542 C 64.94,10.65 64.907,10.737 64.842,10.806 C 64.776,10.875 64.688,10.909 64.578,10.911 C 64.467,10.909 64.378,10.875 64.311,10.806 C 64.245,10.737 64.209,10.65 64.207,10.542 C 64.207,10.473 64.223,10.411 64.254,10.357 C 64.284,10.303 64.325,10.258 64.379,10.227 C 64.435,10.194 64.5,10.177 64.572,10.177 C 64.649,10.177 64.715,10.194 64.77,10.227 C 64.825,10.258 64.869,10.303 64.898,10.357 C 64.928,10.411 64.941,10.473 64.941,10.542 Z M 64.887,9.719 L 64.257,9.719 L 64.257,6.715 L 64.887,6.715 L 64.887,9.719 Z" marker-start="none" marker-end="none"/>
       <path d="M 68.177,8.55 C 68.175,8.781 68.145,8.975 68.088,9.131 C 68.029,9.291 67.952,9.418 67.858,9.511 C 67.761,9.607 67.655,9.676 67.537,9.718 C 67.422,9.76 67.304,9.78 67.186,9.78 C 67.034,9.778 66.899,9.753 66.779,9.704 C 66.661,9.654 66.561,9.591 66.476,9.514 C 66.39,9.436 66.324,9.354 66.276,9.268 L 66.259,9.268 L 66.227,9.713 L 65.678,9.713 C 65.685,9.588 65.689,9.456 65.693,9.321 C 65.697,9.185 65.699,9.036 65.699,8.869 L 65.699,6.715 L 66.331,6.715 L 66.331,8.522 C 66.333,8.683 66.365,8.817 66.429,8.926 C 66.492,9.036 66.571,9.117 66.668,9.173 C 66.767,9.23 66.868,9.257 66.973,9.257 C 67.116,9.254 67.228,9.218 67.312,9.149 C 67.397,9.078 67.456,8.985 67.493,8.865 C 67.528,8.747 67.545,8.615 67.545,8.474 L 67.545,6.715 L 68.177,6.715 L 68.177,8.55 Z" marker-start="none" marker-end="none"/>
       <path d="M 71.061,7.282 C 70.964,7.239 70.856,7.206 70.734,7.18 C 70.614,7.154 70.47,7.14 70.306,7.14 C 70.146,7.139 69.997,7.171 69.863,7.231 C 69.728,7.292 69.619,7.392 69.534,7.53 C 69.45,7.666 69.404,7.847 69.396,8.07 L 71.302,8.07 C 71.306,8.108 71.311,8.15 71.313,8.194 C 71.316,8.238 71.318,8.284 71.318,8.337 C 71.318,8.522 71.296,8.704 71.252,8.875 C 71.208,9.046 71.138,9.2 71.043,9.336 C 70.95,9.472 70.827,9.578 70.677,9.659 C 70.527,9.737 70.346,9.778 70.137,9.78 C 69.925,9.778 69.733,9.736 69.567,9.654 C 69.401,9.572 69.26,9.458 69.143,9.311 C 69.026,9.165 68.939,8.995 68.878,8.801 C 68.817,8.607 68.786,8.399 68.786,8.173 C 68.787,7.867 68.844,7.599 68.956,7.373 C 69.067,7.148 69.228,6.971 69.441,6.847 C 69.654,6.721 69.91,6.656 70.213,6.655 C 70.419,6.655 70.6,6.673 70.762,6.708 C 70.924,6.742 71.058,6.784 71.165,6.834 L 71.061,7.282 Z M 69.401,8.522 C 69.409,8.611 69.429,8.703 69.458,8.796 C 69.489,8.888 69.531,8.975 69.586,9.055 C 69.643,9.137 69.71,9.201 69.795,9.25 C 69.878,9.301 69.978,9.327 70.093,9.328 C 70.213,9.327 70.315,9.301 70.395,9.252 C 70.478,9.203 70.541,9.14 70.589,9.058 C 70.638,8.979 70.672,8.893 70.692,8.799 C 70.711,8.705 70.72,8.613 70.719,8.522 L 69.401,8.522 Z" marker-start="none" marker-end="none"/>
       <path d="M 73.56,9.606 C 73.477,9.653 73.374,9.693 73.252,9.727 C 73.131,9.76 72.996,9.778 72.846,9.78 C 72.635,9.778 72.452,9.737 72.295,9.659 C 72.14,9.578 72.021,9.472 71.936,9.336 C 71.851,9.201 71.808,9.05 71.807,8.882 C 71.806,8.706 71.868,8.546 71.991,8.4 C 72.114,8.255 72.309,8.128 72.574,8.022 C 72.694,7.971 72.788,7.922 72.861,7.872 C 72.93,7.824 72.981,7.771 73.013,7.713 C 73.044,7.657 73.059,7.59 73.058,7.515 C 73.058,7.398 73.018,7.304 72.933,7.233 C 72.852,7.162 72.726,7.125 72.558,7.123 C 72.471,7.124 72.386,7.133 72.301,7.155 C 72.214,7.175 72.135,7.2 72.061,7.231 C 71.987,7.26 71.925,7.292 71.873,7.325 L 71.73,6.856 C 71.833,6.797 71.954,6.747 72.096,6.712 C 72.236,6.675 72.387,6.655 72.546,6.654 C 72.775,6.655 72.973,6.692 73.141,6.765 C 73.307,6.839 73.438,6.944 73.529,7.08 C 73.619,7.216 73.666,7.381 73.668,7.574 C 73.668,7.79 73.604,7.972 73.476,8.118 C 73.349,8.262 73.16,8.384 72.913,8.484 C 72.791,8.535 72.694,8.585 72.619,8.631 C 72.546,8.674 72.493,8.722 72.46,8.773 C 72.427,8.825 72.411,8.885 72.411,8.952 C 72.411,9.021 72.428,9.08 72.462,9.137 C 72.494,9.191 72.544,9.234 72.608,9.268 C 72.673,9.299 72.751,9.317 72.846,9.317 C 72.929,9.317 73.005,9.307 73.077,9.292 C 73.149,9.273 73.213,9.252 73.271,9.225 C 73.329,9.2 73.379,9.174 73.417,9.149 L 73.56,9.606 Z" marker-start="none" marker-end="none"/>
       <path d="M 75.916,9.606 C 75.834,9.653 75.731,9.693 75.609,9.727 C 75.486,9.76 75.351,9.778 75.203,9.78 C 74.992,9.778 74.809,9.737 74.653,9.659 C 74.498,9.578 74.378,9.472 74.293,9.336 C 74.207,9.201 74.165,9.05 74.164,8.882 C 74.163,8.706 74.224,8.546 74.347,8.4 C 74.472,8.255 74.665,8.128 74.931,8.022 C 75.05,7.971 75.146,7.922 75.217,7.872 C 75.289,7.824 75.339,7.771 75.371,7.713 C 75.401,7.657 75.417,7.59 75.416,7.515 C 75.416,7.398 75.375,7.304 75.291,7.233 C 75.21,7.162 75.084,7.125 74.914,7.123 C 74.829,7.124 74.743,7.133 74.658,7.155 C 74.572,7.175 74.494,7.2 74.418,7.231 C 74.344,7.26 74.282,7.292 74.229,7.325 L 74.088,6.856 C 74.191,6.797 74.311,6.747 74.454,6.712 C 74.593,6.675 74.744,6.655 74.905,6.654 C 75.133,6.655 75.33,6.692 75.498,6.765 C 75.664,6.839 75.793,6.944 75.885,7.08 C 75.978,7.216 76.023,7.381 76.027,7.574 C 76.027,7.79 75.96,7.972 75.832,8.118 C 75.705,8.262 75.518,8.384 75.269,8.484 C 75.147,8.535 75.05,8.585 74.976,8.631 C 74.905,8.674 74.851,8.722 74.817,8.773 C 74.784,8.825 74.768,8.885 74.768,8.952 C 74.768,9.021 74.786,9.08 74.818,9.137 C 74.853,9.191 74.899,9.234 74.965,9.268 C 75.03,9.299 75.11,9.317 75.203,9.317 C 75.286,9.317 75.363,9.307 75.433,9.292 C 75.506,9.273 75.57,9.252 75.628,9.225 C 75.686,9.2 75.734,9.174 75.775,9.149 L 75.916,9.606 Z" marker-start="none" marker-end="none"/>
       <path d="M 79.493,9.606 C 79.41,9.653 79.308,9.693 79.186,9.727 C 79.065,9.76 78.929,9.778 78.78,9.78 C 78.568,9.778 78.386,9.737 78.231,9.659 C 78.075,9.578 77.955,9.472 77.87,9.336 C 77.784,9.201 77.741,9.05 77.741,8.882 C 77.74,8.706 77.801,8.546 77.925,8.4 C 78.048,8.255 78.243,8.128 78.509,8.022 C 78.627,7.971 78.722,7.922 78.794,7.872 C 78.865,7.824 78.915,7.771 78.947,7.713 C 78.979,7.657 78.994,7.59 78.993,7.515 C 78.993,7.398 78.951,7.304 78.869,7.233 C 78.787,7.162 78.661,7.125 78.492,7.123 C 78.406,7.124 78.319,7.133 78.234,7.155 C 78.149,7.175 78.07,7.2 77.996,7.231 C 77.922,7.26 77.858,7.292 77.807,7.325 L 77.665,6.856 C 77.767,6.797 77.89,6.747 78.03,6.712 C 78.171,6.675 78.321,6.655 78.481,6.654 C 78.71,6.655 78.906,6.692 79.075,6.765 C 79.24,6.839 79.372,6.944 79.462,7.08 C 79.554,7.216 79.602,7.381 79.603,7.574 C 79.603,7.79 79.538,7.972 79.41,8.118 C 79.282,8.262 79.094,8.384 78.846,8.484 C 78.725,8.535 78.627,8.585 78.554,8.631 C 78.481,8.674 78.427,8.722 78.394,8.773 C 78.361,8.825 78.344,8.885 78.344,8.952 C 78.345,9.021 78.362,9.08 78.394,9.137 C 78.429,9.191 78.478,9.234 78.542,9.268 C 78.607,9.299 78.686,9.317 78.78,9.317 C 78.863,9.317 78.939,9.307 79.01,9.292 C 79.083,9.273 79.147,9.252 79.205,9.225 C 79.262,9.2 79.312,9.174 79.351,9.149 L 79.493,9.606 Z" marker-start="none" marker-end="none"/>
       <path d="M 81.442,9.78 C 81.243,9.78 81.057,9.743 80.886,9.675 C 80.715,9.605 80.565,9.503 80.437,9.368 C 80.308,9.232 80.208,9.066 80.137,8.869 C 80.065,8.674 80.028,8.45 80.027,8.196 C 80.028,7.952 80.064,7.737 80.132,7.546 C 80.201,7.355 80.297,7.193 80.422,7.062 C 80.546,6.929 80.69,6.828 80.856,6.758 C 81.022,6.691 81.203,6.655 81.399,6.654 C 81.57,6.654 81.737,6.683 81.903,6.745 C 82.067,6.805 82.218,6.9 82.353,7.027 C 82.489,7.154 82.598,7.318 82.678,7.517 C 82.758,7.719 82.801,7.959 82.802,8.238 C 82.801,8.547 82.744,8.817 82.632,9.047 C 82.521,9.277 82.363,9.456 82.16,9.584 C 81.956,9.712 81.716,9.778 81.442,9.78 Z M 82.156,8.223 C 82.155,8.071 82.139,7.931 82.104,7.798 C 82.07,7.668 82.02,7.55 81.956,7.449 C 81.892,7.351 81.815,7.273 81.724,7.215 C 81.632,7.157 81.529,7.129 81.416,7.128 C 81.299,7.129 81.195,7.157 81.103,7.215 C 81.012,7.27 80.935,7.351 80.871,7.449 C 80.807,7.549 80.759,7.663 80.726,7.795 C 80.691,7.924 80.675,8.065 80.674,8.211 C 80.674,8.342 80.687,8.471 80.716,8.602 C 80.742,8.73 80.786,8.847 80.845,8.952 C 80.906,9.058 80.983,9.144 81.076,9.208 C 81.171,9.271 81.286,9.304 81.42,9.307 C 81.553,9.304 81.664,9.271 81.757,9.206 C 81.851,9.142 81.927,9.056 81.986,8.95 C 82.044,8.843 82.088,8.726 82.115,8.602 C 82.141,8.475 82.156,8.348 82.156,8.223 Z" marker-start="none" marker-end="none"/>
       <path d="M 84.06,11.08 L 83.427,11.08 L 83.427,6.715 L 84.06,6.715 L 84.06,11.08 Z" marker-start="none" marker-end="none"/>
       <path d="M 87.304,9.713 L 86.674,9.713 L 86.674,7.857 C 86.674,7.744 86.653,7.645 86.615,7.562 C 86.578,7.475 86.529,7.405 86.467,7.347 C 86.407,7.29 86.342,7.249 86.268,7.219 C 86.193,7.191 86.121,7.177 86.047,7.177 C 85.91,7.177 85.8,7.215 85.718,7.285 C 85.637,7.358 85.577,7.457 85.539,7.585 C 85.503,7.712 85.485,7.864 85.486,8.039 L 85.486,9.719 L 84.854,9.719 L 84.854,7.933 C 84.856,7.695 84.882,7.494 84.933,7.33 C 84.985,7.165 85.057,7.035 85.146,6.935 C 85.236,6.835 85.338,6.765 85.454,6.72 C 85.57,6.675 85.693,6.654 85.824,6.654 C 85.944,6.655 86.055,6.672 86.152,6.703 C 86.25,6.734 86.335,6.775 86.41,6.825 C 86.484,6.875 86.549,6.928 86.601,6.985 C 86.654,7.041 86.695,7.097 86.728,7.15 L 86.744,7.15 L 86.777,6.715 L 87.331,6.715 C 87.325,6.834 87.319,6.964 87.314,7.108 C 87.307,7.251 87.305,7.406 87.304,7.574 L 87.304,9.713 Z" marker-start="none" marker-end="none"/>
       <path d="M 88.241,9.713 L 87.816,9.713 L 87.816,9.242 L 88.241,9.242 L 88.241,7.69 C 88.241,7.494 88.26,7.331 88.296,7.201 C 88.331,7.07 88.388,6.963 88.464,6.884 C 88.53,6.81 88.615,6.754 88.717,6.714 C 88.816,6.675 88.931,6.655 89.058,6.654 C 89.163,6.655 89.259,6.662 89.341,6.673 C 89.424,6.687 89.493,6.703 89.547,6.726 L 89.525,7.209 C 89.488,7.2 89.449,7.189 89.406,7.183 C 89.362,7.176 89.309,7.173 89.247,7.172 C 89.116,7.172 89.018,7.216 88.958,7.308 C 88.897,7.398 88.866,7.538 88.867,7.721 L 88.867,9.242 L 89.58,9.242 L 89.58,9.713 L 88.867,9.713 L 88.867,10.454 L 88.241,10.258 L 88.241,9.713 Z" marker-start="none" marker-end="none"/>
       <path d="M 90.811,10.542 C 90.808,10.65 90.776,10.737 90.711,10.806 C 90.644,10.875 90.557,10.909 90.446,10.911 C 90.335,10.909 90.246,10.875 90.179,10.806 C 90.112,10.737 90.077,10.65 90.076,10.542 C 90.076,10.473 90.092,10.411 90.123,10.357 C 90.153,10.303 90.194,10.258 90.25,10.227 C 90.305,10.194 90.366,10.177 90.44,10.177 C 90.517,10.177 90.584,10.194 90.638,10.227 C 90.693,10.258 90.736,10.303 90.765,10.357 C 90.795,10.411 90.811,10.473 90.811,10.542 Z M 90.755,9.719 L 90.125,9.719 L 90.125,6.715 L 90.755,6.715 L 90.755,9.719 Z" marker-start="none" marker-end="none"/>
       <path d="M 92.794,9.78 C 92.593,9.78 92.407,9.743 92.236,9.675 C 92.066,9.605 91.915,9.503 91.787,9.368 C 91.659,9.232 91.56,9.066 91.487,8.869 C 91.416,8.674 91.379,8.45 91.379,8.196 C 91.379,7.952 91.415,7.737 91.484,7.546 C 91.553,7.355 91.647,7.193 91.772,7.062 C 91.896,6.929 92.04,6.828 92.207,6.758 C 92.372,6.691 92.553,6.655 92.748,6.654 C 92.921,6.654 93.088,6.683 93.254,6.745 C 93.418,6.805 93.569,6.9 93.705,7.027 C 93.84,7.154 93.947,7.318 94.028,7.517 C 94.11,7.719 94.15,7.959 94.152,8.238 C 94.15,8.547 94.093,8.817 93.982,9.047 C 93.871,9.277 93.714,9.456 93.511,9.584 C 93.307,9.712 93.068,9.778 92.794,9.78 Z M 93.506,8.223 C 93.505,8.071 93.488,7.931 93.454,7.798 C 93.42,7.668 93.371,7.55 93.307,7.449 C 93.243,7.351 93.165,7.273 93.074,7.215 C 92.983,7.157 92.881,7.129 92.765,7.128 C 92.651,7.129 92.547,7.157 92.455,7.215 C 92.363,7.27 92.286,7.351 92.221,7.449 C 92.158,7.549 92.108,7.663 92.076,7.795 C 92.042,7.924 92.027,8.065 92.025,8.211 C 92.025,8.342 92.039,8.471 92.066,8.602 C 92.094,8.73 92.136,8.847 92.196,8.952 C 92.255,9.058 92.332,9.144 92.426,9.208 C 92.522,9.271 92.636,9.304 92.771,9.307 C 92.902,9.304 93.016,9.271 93.109,9.206 C 93.202,9.142 93.277,9.056 93.335,8.95 C 93.395,8.843 93.437,8.726 93.464,8.602 C 93.494,8.475 93.506,8.348 93.506,8.223 Z" marker-start="none" marker-end="none"/>
       <path d="M 97.256,8.55 C 97.254,8.781 97.224,8.975 97.166,9.131 C 97.109,9.291 97.032,9.418 96.936,9.511 C 96.84,9.607 96.735,9.676 96.618,9.718 C 96.5,9.76 96.384,9.78 96.266,9.78 C 96.114,9.778 95.98,9.753 95.86,9.704 C 95.742,9.654 95.639,9.591 95.554,9.514 C 95.47,9.436 95.402,9.354 95.357,9.268 L 95.34,9.268 L 95.307,9.713 L 94.756,9.713 C 94.763,9.588 94.769,9.456 94.772,9.321 C 94.778,9.185 94.779,9.036 94.779,8.869 L 94.779,6.715 L 95.41,6.715 L 95.41,8.522 C 95.412,8.683 95.445,8.817 95.509,8.926 C 95.571,9.036 95.65,9.117 95.749,9.173 C 95.846,9.23 95.947,9.257 96.052,9.257 C 96.194,9.254 96.309,9.218 96.392,9.149 C 96.476,9.078 96.536,8.985 96.571,8.865 C 96.608,8.747 96.626,8.615 96.625,8.474 L 96.625,6.715 L 97.256,6.715 L 97.256,8.55 Z" marker-start="none" marker-end="none"/>
      </g>
     </g>
     <g id="Group_5">
      <g id="Group_6">
       <path d="M 5.58,15.242 L 5.58,21.957 C 5.686,23.318 6.772,24.407 8.136,24.512 L 14.849,24.512 L 14.849,15.242 L 5.58,15.242 Z" fill="#2980b9" stroke-width="0.136" stroke-linejoin="round" marker-start="none" marker-end="none" stroke-miterlimit="79.8403193612775"/>
       <path d="M 15.959,15.259 L 15.959,24.519 L 22.455,24.519 C 23.919,24.519 25.12,23.386 25.228,21.948 L 25.228,15.259 L 15.959,15.259 Z" fill="#3498db" stroke-width="0.274" stroke-linejoin="miter" marker-start="none" marker-end="none" stroke-miterlimit="79.8403193612775"/>
       <path d="M 5.58,7.413 L 5.58,7.46 L 5.58,14.118 L 14.849,14.118 L 14.849,4.856 L 8.352,4.856 C 6.891,4.856 5.694,5.982 5.58,7.413 Z" fill="#16a085" stroke-width="0.274" stroke-linejoin="miter" marker-start="none" marker-end="none" stroke-miterlimit="79.8403193612775"/>
       <path d="M 15.959,4.865 L 15.959,14.133 L 25.228,14.133 L 25.228,7.479 L 25.228,7.419 C 25.122,6.059 24.038,4.971 22.677,4.865 L 15.959,4.865 Z" fill="#e67e22" stroke-width="0.274" stroke-linejoin="miter" marker-start="none" marker-end="none" stroke-miterlimit="79.8403193612775"/>
      </g>
      <g id="Group_7">
       <path d="M 13.569,26.744 L 15.405,28.581 L 17.21,26.773 C 16.174,27.662 14.634,27.662 13.597,26.774 L 13.569,26.744 Z" fill="#2980b9" stroke-width="0.136" stroke-linejoin="round" marker-start="none" marker-end="none" stroke-miterlimit="79.8403193612775"/>
       <path d="M 27.342,16.654 L 22.748,21.247 L 22.754,21.253 L 29.308,14.699 L 27.446,12.837 L 27.485,12.875 C 28.424,13.967 28.378,15.618 27.342,16.654 Z" fill="#3498db" stroke-width="0.274" stroke-linejoin="miter" marker-start="none" marker-end="none" stroke-miterlimit="79.8403193612775"/>
       <path d="M 1.5,14.676 L 3.313,16.489 C 2.383,15.398 2.434,13.753 3.465,12.722 L 8.06,8.127 L 8.055,8.122 L 1.5,14.676 Z" fill="#16a085" stroke-width="0.274" stroke-linejoin="miter" marker-start="none" marker-end="none" stroke-miterlimit="79.8403193612775"/>
       <path d="M 17.21,2.603 L 15.405,0.794 L 13.602,2.597 C 14.639,1.713 16.174,1.715 17.21,2.603 Z" fill="#e67e22" stroke-width="0.274" stroke-linejoin="miter" marker-start="none" marker-end="none" stroke-miterlimit="79.8403193612775"/>
      </g>
     </g>
    </g>
   </g>
  </g>
 </g>
</svg>
